#!OML:ASF X:\für Bonn\!DataBase\2005_08_12_Daniel\c3d\Daniel.ASF
:FULLY-SPECIFIED
:DEGREES
156
root 0.37464 16.1896 1.09858 -554.887 -106.102 544.531
lowerback 13.2263 0.805386 1.42858
upperback -6.32142 0.483564 -5.65513
thorax -14.5299 -0.350915 -7.33411
lowerneck 3.33238 -7.16509 -2.15972
upperneck 4.519 -9.66303 -0.345108
head 0.926657 -4.89216 0.248578
rclavicle -1.94809e-014 -1.11319e-014
rhumerus 71.5446 -11.4376 -70.2562
rradius 79.5857
rwrist 34.8568
rhand -65.4145 613.986
rfingers 7.12502
rthumb -37.2896 80.0254
lclavicle -1.94809e-014 -1.11319e-014
lhumerus -107.544 213.014 -118.059
lradius 84.0956
lwrist 47.3112
lhand -21.963 -12.3961
lfingers 7.12502
lthumb 4.44454 17.5373
rfemur -5.80872 -17.7762 6.96256
rtibia 59.8218
rfoot -20.0825 -0.943309
rtoes -7.75535
lfemur -195.742 196.728 -201.47
ltibia 60.6864
lfoot 333.943 -7.5685
ltoes 1.39514
157
root 0.364608 16.3891 1.09192 -554.74 -106.059 544.693
lowerback 13.1081 0.866483 1.50627
upperback -6.51845 0.556758 -5.7435
thorax -14.6825 -0.344271 -7.5078
lowerneck 3.62533 -7.14746 -2.2252
upperneck 4.44262 -9.65673 -0.141053
head 0.869256 -4.88911 0.333044
rclavicle 6.36111e-015 3.18055e-014
rhumerus 72.059 -11.5414 -70.5836
rradius 76.5131
rwrist 35.4099
rhand -65.6965 614.404
rfingers 7.12502
rthumb -37.5562 79.6772
lclavicle 6.36111e-015 3.18055e-014
lhumerus -107.891 213.106 -118.271
lradius 83.7476
lwrist 47.1228
lhand -21.7593 -11.8154
lfingers 7.12502
lthumb 4.64121 18.1138
rfemur -5.25478 -17.1645 7.54482
rtibia 57.6055
rfoot -18.6019 -2.53798
rtoes -8.18379
lfemur -195.203 197.465 -201.638
ltibia 58.9607
lfoot 335.907 -6.29194
ltoes 1.16112
158
root 0.358639 16.5876 1.0849 -554.586 -106.006 544.841
lowerback 12.9807 0.926839 1.60983
upperback -6.69268 0.632576 -5.84851
thorax -14.8015 -0.33903 -7.7149
lowerneck 3.78683 -7.13522 -2.30038
upperneck 4.48162 -9.65626 0.0909439
head 0.871279 -4.8903 0.419606
rclavicle 5.80451e-014 -4.77083e-014
rhumerus 72.7069 -11.7052 -71.0235
rradius 73.1122
rwrist 36.0305
rhand -65.9532 615.053
rfingers 7.12502
rthumb -37.7988 79.0929
lclavicle 5.80451e-014 -4.77083e-014
lhumerus -108.242 213.189 -118.501
lradius 83.4333
lwrist 47.0372
lhand -21.5865 -11.1423
lfingers 7.12502
lthumb 4.80804 18.7831
rfemur -4.80876 -16.5412 8.1037
rtibia 55.4746
rfoot -16.8783 -4.21273
rtoes -8.67406
lfemur -194.75 198.187 -201.772
ltibia 57.2789
lfoot 338.256 -5.0188
ltoes 1.12694
159
root 0.353715 16.7831 1.07869 -554.529 -105.912 545.074
lowerback 12.8891 0.994464 1.68661
upperback -6.8797 0.714428 -5.93445
thorax -14.9575 -0.329419 -7.8892
lowerneck 3.96869 -7.10669 -2.40041
upperneck 4.52833 -9.6358 0.31499
head 0.872932 -4.88235 0.508614
rclavicle 2.34566e-014 2.70347e-014
rhumerus 73.4782 -11.8592 -71.4117
rradius 69.4089
rwrist 36.4816
rhand -66.0356 616.43
rfingers 7.12502
rthumb -37.8766 77.7373
lclavicle 2.34566e-014 2.70347e-014
lhumerus -108.605 213.242 -118.621
lradius 83.0325
lwrist 47.0255
lhand -21.3828 -10.5168
lfingers 7.12502
lthumb 5.0047 19.4041
rfemur -4.43425 -15.8676 8.60443
rtibia 53.4395
rfoot -15.0599 -5.92164
rtoes -9.13517
lfemur -194.398 198.838 -201.902
ltibia 55.6949
lfoot 340.929 -3.67346
ltoes 1.08864
160
root 0.345467 16.9818 1.07327 -554.472 -105.792 545.306
lowerback 12.7867 1.06783 1.78495
upperback -7.04619 0.808353 -6.02824
thorax -15.0799 -0.315596 -8.08654
lowerneck 4.11429 -7.07535 -2.47214
upperneck 4.60002 -9.61146 0.565865
head 0.888186 -4.87227 0.599621
rclavicle -2.5842e-014 3.81667e-014
rhumerus 74.3681 -12.046 -71.8521
rradius 65.5101
rwrist 36.9132
rhand -66.0426 618.661
rfingers 7.12502
rthumb -37.8832 75.5082
lclavicle -2.5842e-014 3.81667e-014
lhumerus -108.787 213.234 -118.831
lradius 82.5651
lwrist 47.1122
lhand -21.2888 -9.80881
lfingers 7.12502
lthumb 5.09546 20.1099
rfemur -4.10317 -15.1315 9.08521
rtibia 51.4825
rfoot -13.1859 -7.66015
rtoes -9.5163
lfemur -194.171 199.425 -201.988
ltibia 54.2287
lfoot 343.914 -2.2845
ltoes 1.15483
161
root 0.335585 17.1784 1.06904 -554.447 -105.654 545.54
lowerback 12.7232 1.14998 1.89989
upperback -7.21762 0.916634 -6.12238
thorax -15.2304 -0.299107 -8.30108
lowerneck 4.32473 -7.04127 -2.567
upperneck 4.68517 -9.58902 0.860295
head 0.900557 -4.86421 0.710146
rclavicle 1.00585e-013 -1.11319e-014
rhumerus 75.3303 -12.2547 -72.1888
rradius 61.406
rwrist 37.1666
rhand -65.9296 622.278
rfingers 7.12502
rthumb -37.7765 71.8621
lclavicle 1.00585e-013 -1.11319e-014
lhumerus -108.841 213.159 -119.073
lradius 81.9796
lwrist 47.3849
lhand -21.2011 -9.06751
lfingers 7.12502
lthumb 5.18019 20.8492
rfemur -3.78575 -14.3039 9.52987
rtibia 49.616
rfoot -11.2954 -9.38088
rtoes -9.54322
lfemur -194.036 199.875 -202.034
ltibia 52.9065
lfoot 347.034 -0.943986
ltoes 1.32205
